HIERARCHY
ROOT Hips
{
	OFFSET 29.804300 14.519284 98.507202
	CHANNELS 6 Xposition Yposition Zposition Xrotation Yrotation Zrotation
	JOINT spine
	{
		OFFSET 0.000000 -0.477352 8.301041
		CHANNELS 3 Xrotation Yrotation Zrotation
		JOINT spine1
		{
			OFFSET 0.000000 -0.000002 10.456497
			CHANNELS 3 Xrotation Yrotation Zrotation
			JOINT spine2
			{
				OFFSET 0.000000 -0.000002 10.019203
				CHANNELS 3 Xrotation Yrotation Zrotation
				JOINT Neck
				{
					OFFSET 0.000000 -1.226414 25.723503
					CHANNELS 3 Xrotation Yrotation Zrotation
					JOINT Head
					{
						OFFSET 0.000000 -0.000001 7.771744
						CHANNELS 3 Xrotation Yrotation Zrotation
						End Site
						{
							OFFSET 0.000000 6.203938 18.811996
						}
					}
				}
				JOINT RightShoulder
				{
					OFFSET -4.218800 0.587437 10.820000
					CHANNELS 3 Xrotation Yrotation Zrotation
					JOINT RightArm
					{
						OFFSET 0.000000 -0.000002 14.191406
						CHANNELS 3 Xrotation Yrotation Zrotation
						JOINT RightArmRoll
						{
							OFFSET 0.000000 -0.000001 7.164078
							CHANNELS 3 Xrotation Yrotation Zrotation
							JOINT RightForeArm
							{
								OFFSET 0.000000 -0.000004 20.866501
								CHANNELS 3 Xrotation Yrotation Zrotation
								JOINT RightForeArmRoll
								{
									OFFSET 0.000000 -0.000001 8.039215
									CHANNELS 3 Xrotation Yrotation Zrotation
									JOINT RightHand
									{
										OFFSET 0.000000 -0.000003 16.132996
										CHANNELS 3 Xrotation Yrotation Zrotation
										End Site
										{
											OFFSET 0.000000 0.000000 0.100006
										}
									}
								}
							}
						}
					}
				}
				JOINT LeftShoulder
				{
					OFFSET 4.218801 0.587437 10.820000
					CHANNELS 3 Xrotation Yrotation Zrotation
					JOINT LeftArm
					{
						OFFSET 0.000000 -0.000002 14.191406
						CHANNELS 3 Xrotation Yrotation Zrotation
						JOINT LeftArmRoll
						{
							OFFSET 0.000000 -0.000001 7.164093
							CHANNELS 3 Xrotation Yrotation Zrotation
							JOINT LeftForeArm
							{
								OFFSET 0.000000 -0.000004 20.866501
								CHANNELS 3 Xrotation Yrotation Zrotation
								JOINT LeftForeArmRoll
								{
									OFFSET 0.000000 -0.000001 8.039215
									CHANNELS 3 Xrotation Yrotation Zrotation
									JOINT LeftHand
									{
										OFFSET 0.000000 -0.000003 16.132996
										CHANNELS 3 Xrotation Yrotation Zrotation
										End Site
										{
											OFFSET 0.000000 0.000000 0.100006
										}
									}
								}
							}
						}
					}
				}
			}
		}
	}
	JOINT RightUpLeg
	{
		OFFSET -7.357729 1.131820 -1.349213
		CHANNELS 3 Xrotation Yrotation Zrotation
		JOINT RightUpLegRoll
		{
			OFFSET 0.000000 -0.000003 18.916801
			CHANNELS 3 Xrotation Yrotation Zrotation
			JOINT RightLeg
			{
				OFFSET 0.000000 0.000004 -23.425598
				CHANNELS 3 Xrotation Yrotation Zrotation
				JOINT RightLegRoll
				{
					OFFSET 0.000000 -0.000004 23.502296
					CHANNELS 3 Xrotation Yrotation Zrotation
					JOINT RightFoot
					{
						OFFSET 0.000000 -0.000003 19.561707
						CHANNELS 3 Xrotation Yrotation Zrotation
						JOINT RightToeBase
						{
							OFFSET 0.000000 -0.000003 16.352600
							CHANNELS 3 Xrotation Yrotation Zrotation
							End Site
							{
								OFFSET 0.006931 0.912835 7.919434
							}
						}
					}
				}
			}
		}
	}
	JOINT LeftUpLeg
	{
		OFFSET 7.357729 1.131820 -1.349213
		CHANNELS 3 Xrotation Yrotation Zrotation
		JOINT LeftUpLegRoll
		{
			OFFSET 0.000000 -0.000003 18.916901
			CHANNELS 3 Xrotation Yrotation Zrotation
			JOINT LeftLeg
			{
				OFFSET 0.000000 -0.000004 23.425507
				CHANNELS 3 Xrotation Yrotation Zrotation
				JOINT LeftLegRoll
				{
					OFFSET 0.000000 -0.000004 23.719498
					CHANNELS 3 Xrotation Yrotation Zrotation
					JOINT LeftFoot
					{
						OFFSET 0.000000 -0.000003 19.344406
						CHANNELS 3 Xrotation Yrotation Zrotation
						JOINT LeftToeBase
						{
							OFFSET 0.000000 -0.000003 16.352600
							CHANNELS 3 Xrotation Yrotation Zrotation
							End Site
							{
								OFFSET -0.031063 0.912835 7.919434
							}
						}
					}
				}
			}
		}
	}
}
MOTION
Frames: 8
Frame Time: 0.041667
29.856102 1.007264 98.860596 -4.427037 -0.965125 3.234733 -0.656897 -0.084013 0.244675 2.689412 -0.168064 0.489294 4.334468 -0.162191 0.491274 19.042535 0.380776 -2.905607 -7.094614 0.704091 -2.921581 -2.004205 -74.590809 -4.005082 -77.769886 -118.926653 -53.779062 -0.000005 -0.000021 -0.000001 0.068297 -8.805416 -0.647748 0.000008 0.000009 -3.139122 -5.000220 -7.998870 0.000115 11.656827 66.755407 -12.075464 -59.699105 111.288036 43.617219 0.000000 0.000002 0.000000 0.909988 9.779261 0.428004 -0.000001 -0.000006 3.000010 -5.000220 7.998823 -0.000143 3.472420 -173.589695 2.989136 179.999991 -0.000005 -1.203994 174.733519 -3.875622 -0.627970 -0.000001 0.000004 0.062060 68.595563 6.916375 2.086574 25.456947 -7.353804 0.000007 2.274465 174.391382 0.121605 -0.000005 -0.000004 -1.259300 -8.563568 2.675975 0.935343 -0.000006 -0.000005 -0.097810 68.162529 -6.962043 -1.990533 25.456918 7.355011 -0.000000 
29.816299 0.950408 98.857498 -4.428920 -0.965307 3.238288 -0.656164 -0.084994 0.244971 2.690873 -0.169650 0.490048 4.335927 -0.163768 0.492045 19.051360 0.390728 -2.909059 -7.096642 0.692831 -2.924627 -2.018193 -74.572579 -4.018454 -77.750304 -118.898704 -53.734693 -0.000003 -0.000020 -0.000001 0.068257 -8.793375 -0.648306 0.000011 0.000009 -3.139121 -5.000220 -7.998873 0.000115 11.670588 66.758447 -12.090205 -59.674051 111.261043 43.587276 -0.000003 0.000002 0.000000 0.899879 9.784997 0.427973 0.000001 -0.000006 3.000010 -5.000219 7.998824 -0.000143 3.476389 -173.590719 2.990899 179.999991 -0.000005 -1.203994 174.731293 -3.877594 -0.628304 -0.000002 0.000004 0.062040 68.595146 6.916381 2.086500 25.456943 -7.353804 0.000007 2.264777 174.386354 0.112553 -0.000005 -0.000004 -1.259300 -8.589377 2.682942 0.936027 -0.000005 -0.000005 -0.097758 68.168430 -6.962057 -1.990564 25.456916 7.355011 -0.000001 
29.825100 0.956574 98.858391 -4.430870 -0.965562 3.241715 -0.655458 -0.085999 0.245294 2.692283 -0.171260 0.490859 4.337349 -0.165368 0.492877 19.060083 0.401255 -2.912593 -7.098245 0.681079 -2.927751 -2.032274 -74.554042 -4.031900 -77.730524 -118.871205 -53.690164 -0.000002 -0.000020 -0.000000 0.068218 -8.781225 -0.648966 0.000010 0.000010 -3.139121 -5.000221 -7.998871 0.000115 11.685257 66.761909 -12.105886 -59.648793 111.233961 43.557008 0.000001 0.000003 -0.000001 0.889784 9.790862 0.427940 -0.000001 -0.000006 3.000010 -5.000221 7.998823 -0.000142 3.480553 -173.592727 2.992514 179.999991 -0.000005 -1.203994 174.729271 -3.879580 -0.628624 -0.000002 0.000004 0.062009 68.594839 6.916397 2.086522 25.456947 -7.353803 0.000007 2.255071 174.381314 0.103232 -0.000004 -0.000004 -1.259301 -8.615528 2.690213 0.936690 -0.000006 -0.000005 -0.097681 68.174632 -6.962059 -1.990473 25.456916 7.355010 0.000001 
29.823000 0.941606 98.851501 -4.432864 -0.965870 3.245058 -0.654771 -0.087020 0.245634 2.693663 -0.172886 0.491714 4.338718 -0.166984 0.493750 19.068910 0.412184 -2.916190 -7.099550 0.668983 -2.930921 -2.046391 -74.535109 -4.045352 -77.710518 -118.844021 -53.645443 -0.000004 -0.000020 -0.000001 0.068182 -8.768995 -0.649700 0.000010 0.000009 -3.139119 -5.000220 -7.998874 0.000114 11.700520 66.765625 -12.122169 -59.625694 111.206381 43.528983 -0.000001 0.000003 -0.000001 0.879696 9.796827 0.427898 -0.000002 -0.000006 3.000011 -5.000220 7.998823 -0.000143 3.484864 -173.593766 2.994123 179.999991 -0.000005 -1.203994 174.727427 -3.880561 -0.628841 -0.000002 0.000004 0.061972 68.594729 6.916391 2.086528 25.456943 -7.353803 0.000007 2.245335 174.376300 0.093726 -0.000005 -0.000004 -1.259300 -8.641920 2.697687 0.937340 -0.000006 -0.000005 -0.097584 68.181045 -6.962039 -1.990565 25.456916 7.355010 -0.000000 
29.816200 0.930440 98.860199 -4.434871 -0.966208 3.248356 -0.654096 -0.088052 0.245982 2.695013 -0.174522 0.492593 4.340070 -0.168609 0.494648 19.077642 0.423344 -2.919829 -7.100683 0.656690 -2.934130 -2.060510 -74.515964 -4.058790 -77.690212 -118.817097 -53.600439 -0.000002 -0.000020 -0.000000 0.068145 -8.756715 -0.650473 0.000009 0.000009 -3.139120 -5.000223 -7.998871 0.000114 11.716133 66.769532 -12.138831 -59.602423 111.178712 43.500782 -0.000002 0.000003 0.000000 0.869611 9.802846 0.427860 -0.000002 -0.000006 3.000011 -5.000221 7.998823 -0.000143 3.489255 -173.594790 2.995693 179.999991 -0.000004 -1.203994 174.725651 -3.882537 -0.628146 -0.000002 0.000004 0.061931 68.594620 6.916384 2.086534 25.456943 -7.353804 0.000006 2.235598 174.371246 0.084113 -0.000005 -0.000004 -1.259300 -8.668454 2.705287 0.937985 -0.000005 -0.000005 -0.097478 68.187575 -6.962026 -1.990548 25.456916 7.355009 0.000001 
29.868601 0.993323 98.849403 -4.436893 -0.966552 3.251635 -0.653428 -0.089085 0.246334 2.696364 -0.176160 0.493477 4.341420 -0.170236 0.495553 19.086375 0.434560 -2.923472 -7.101763 0.644349 -2.937334 -2.074615 -74.496819 -4.072207 -77.669858 -118.790172 -53.555414 -0.000002 -0.000019 0.000000 0.068109 -8.744424 -0.651254 0.000010 0.000009 -3.139121 -5.000219 -7.998872 0.000115 11.731872 66.773521 -12.155612 -59.579071 111.151049 43.472498 0.000000 0.000002 -0.000001 0.859525 9.808859 0.427822 -0.000001 -0.000006 3.000011 -5.000222 7.998823 -0.000143 3.493651 -173.595828 2.997264 179.999991 -0.000005 -1.203994 174.723916 -3.884527 -0.628448 -0.000002 0.000004 0.061889 68.594620 6.916385 2.086436 25.456945 -7.353803 0.000006 2.225846 174.366233 0.074475 -0.000005 -0.000004 -1.259300 -8.695021 2.712916 0.938636 -0.000006 -0.000005 -0.097370 68.194111 -6.962049 -1.990542 25.456919 7.355010 -0.000001 
29.853500 0.968667 98.845398 -4.438895 -0.966883 3.254936 -0.652748 -0.090114 0.246681 2.697713 -0.177793 0.494350 4.342779 -0.171858 0.496445 19.095203 0.445659 -2.927109 -7.102937 0.632105 -2.940526 -2.088667 -74.477783 -4.085585 -77.649470 -118.763247 -53.510342 -0.000005 -0.000021 -0.000000 0.068074 -8.732154 -0.652019 0.000008 0.000009 -3.139120 -5.000216 -7.998873 0.000114 11.747445 66.777428 -12.172224 -59.555828 111.123476 43.444310 -0.000000 0.000003 -0.000001 0.849444 9.814864 0.427785 -0.000001 -0.000006 3.000011 -5.000221 7.998823 -0.000144 3.498018 -173.597850 2.998788 179.999991 -0.000005 -1.203994 174.722127 -3.886501 -0.628752 -0.000002 0.000004 0.061849 68.594517 6.916376 2.086441 25.456948 -7.353803 0.000007 2.216112 174.361192 0.064892 -0.000005 -0.000004 -1.259300 -8.721526 2.720484 0.939299 -0.000006 -0.000005 -0.097266 68.200532 -6.962062 -1.990540 25.456914 7.355010 -0.000001 
29.855200 0.976384 98.847992 -4.440872 -0.967177 3.258310 -0.652060 -0.091131 0.247015 2.699104 -0.179414 0.495193 4.344160 -0.173469 0.497307 19.103932 0.456470 -2.930699 -7.104329 0.620107 -2.943686 -2.102607 -74.458836 -4.098866 -77.629266 -118.735981 -53.465423 -0.000003 -0.000020 0.000001 0.068039 -8.719945 -0.652731 0.000008 0.000009 -3.139120 -5.000221 -7.998872 0.000113 11.762551 66.781048 -12.188351 -59.530139 111.096326 43.413502 -0.000001 0.000003 0.000000 0.839350 9.820796 0.427758 0.000002 -0.000006 3.000011 -5.000222 7.998823 -0.000142 3.502283 -173.598875 3.000414 179.999991 -0.000005 -1.203994 174.720214 -3.888488 -0.629066 -0.000002 0.000004 0.061814 68.594299 6.916362 2.086550 25.456945 -7.353804 0.000007 2.206380 174.356151 0.055448 -0.000004 -0.000004 -1.259300 -8.747851 2.727902 0.939984 -0.000006 -0.000005 -0.097175 68.206945 -6.962037 -1.990529 25.456916 7.355009 -0.000000 
